<?xml version="1.0" encoding="iso-8859-1"?>
<!-- Uploaded to: SVG Repo, www.svgrepo.com, Generator: SVG Repo Mixer Tools -->
<!DOCTYPE svg PUBLIC "-//W3C//DTD SVG 1.1//EN" "http://www.w3.org/Graphics/SVG/1.1/DTD/svg11.dtd">
<svg fill="#000000" version="1.1" id="Capa_1" xmlns="http://www.w3.org/2000/svg" xmlns:xlink="http://www.w3.org/1999/xlink" 
	 width="800px" height="800px" viewBox="0 0 433.459 433.459"
	 xml:space="preserve">
<g>
	<g>
		<path d="M395.436,228.807c-1.637-5.093-0.624-29.679,1.303-50.206c0.136-1.506-0.362-3.005-1.386-4.123
			c-1.019-1.119-2.457-1.759-3.969-1.759H221.057l-62.232-8.007L133.4,114.256l-12.644-90.044c-0.291-2.06-1.743-3.773-3.729-4.385
			c-1.989-0.614-4.15-0.026-5.559,1.509L70.844,65.823L31.74,21.407c-1.478-1.677-3.843-2.263-5.935-1.478
			c-2.092,0.785-3.472,2.795-3.472,5.032v98.148L1.718,142.256c-2.026,1.882-2.273,4.955-0.667,7.134
			c-0.973,1.31-1.327,3.047-0.821,4.73l9.567,31.903c0.452,1.509,1.543,2.74,2.989,3.375l36.982,16.271l7.682,82.986
			c0.139,1.512,0.914,2.897,2.129,3.81l54.877,41.156l-4.241,29.701l-17.311,43.176c-0.667,1.654-0.467,3.527,0.539,5.015
			c1,1.475,2.666,2.355,4.451,2.355h31.908c2.063,0,3.945-1.176,4.838-3.038l9.567-19.844c0.162-0.337,0.291-0.672,0.373-1.022
			l6.96-27.839h7.971v25.886l-4.632,19.228c-0.388,1.607-0.023,3.293,1.005,4.589c1.016,1.296,2.575,2.047,4.218,2.047h30.312
			c2.528,0,4.714-1.748,5.252-4.23l9.053-41.388l38.714-21.354l46.021-11.364l25.892,23.176l-3.922,19.622l-21.513,26.794
			c-1.291,1.621-1.548,3.821-0.649,5.701c0.891,1.874,2.786,3.044,4.839,3.044h38.278c1.828,0,3.513-0.923,4.516-2.457
			l23.832-36.724l10.951-15.719v20.589l-4.357,10.164c-0.72,1.664-0.551,3.558,0.451,5.071c1.003,1.506,2.678,2.413,4.482,2.413
			h33.497c2.972,0,5.374-2.402,5.374-5.376v-48.267l21.334-29.971c1.088-1.526,1.303-3.495,0.568-5.223
			C405.705,244.219,398.077,231.757,395.436,228.807z"/>
	</g>
</g>
</svg>